<svg width="19" height="15" viewBox="0 0 19 15" fill="none" xmlns="http://www.w3.org/2000/svg">
<path fill-rule="evenodd" clip-rule="evenodd" d="M1.81445 0.5C1.26217 0.5 0.814453 0.947715 0.814453 1.5C0.814453 2.05228 1.26217 2.5 1.81445 2.5H17.8145C18.3667 2.5 18.8145 2.05228 18.8145 1.5C18.8145 0.947715 18.3667 0.5 17.8145 0.5H1.81445ZM3.81445 5.5C3.81445 4.94772 4.26217 4.5 4.81445 4.5H14.8145C15.3667 4.5 15.8145 4.94772 15.8145 5.5C15.8145 6.05228 15.3667 6.5 14.8145 6.5H4.81445C4.26217 6.5 3.81445 6.05228 3.81445 5.5ZM1.81445 8.5C1.26217 8.5 0.814453 8.94771 0.814453 9.5C0.814453 10.0523 1.26217 10.5 1.81445 10.5H17.8145C18.3667 10.5 18.8145 10.0523 18.8145 9.5C18.8145 8.94771 18.3667 8.5 17.8145 8.5H1.81445ZM4.81445 12.5C4.26217 12.5 3.81445 12.9477 3.81445 13.5C3.81445 14.0523 4.26217 14.5 4.81445 14.5H14.8145C15.3667 14.5 15.8145 14.0523 15.8145 13.5C15.8145 12.9477 15.3667 12.5 14.8145 12.5H4.81445Z" fill="#41167F"/>
</svg> 