<svg width="19" height="15" viewBox="0 0 19 15" fill="none" xmlns="http://www.w3.org/2000/svg">
<path fill-rule="evenodd" clip-rule="evenodd" d="M1.81445 0.5C1.26217 0.5 0.814453 0.947715 0.814453 1.5C0.814453 2.05228 1.26217 2.5 1.81445 2.5H17.8145C18.3667 2.5 18.8145 2.05228 18.8145 1.5C18.8145 0.947715 18.3667 0.5 17.8145 0.5H1.81445ZM0.814453 5.5C0.814453 4.94772 1.26217 4.5 1.81445 4.5H11.8145C12.3667 4.5 12.8145 4.94772 12.8145 5.5C12.8145 6.05228 12.3667 6.5 11.8145 6.5H1.81445C1.26217 6.5 0.814453 6.05228 0.814453 5.5ZM1.81445 8.5C1.26217 8.5 0.814453 8.94771 0.814453 9.5C0.814453 10.0523 1.26217 10.5 1.81445 10.5H17.8145C18.3667 10.5 18.8145 10.0523 18.8145 9.5C18.8145 8.94771 18.3667 8.5 17.8145 8.5H1.81445ZM1.81445 12.5C1.26217 12.5 0.814453 12.9477 0.814453 13.5C0.814453 14.0523 1.26217 14.5 1.81445 14.5H11.8145C12.3667 14.5 12.8145 14.0523 12.8145 13.5C12.8145 12.9477 12.3667 12.5 11.8145 12.5H1.81445Z" fill="#41167F"/>
</svg> 