<svg width="15" height="15" viewBox="0 0 15 15" fill="none" xmlns="http://www.w3.org/2000/svg">
<g clip-path="url(#clip0_5329_17520)">
<path d="M5.67822 7.49902H3.54199V5.79004C3.54199 4.84742 4.30836 4.08105 5.25098 4.08105H5.46459C5.81973 4.08105 6.10547 3.79534 6.10547 3.44017V2.15846C6.10547 1.80332 5.81975 1.51758 5.46459 1.51758H5.25098C2.89045 1.51758 0.978516 3.42951 0.978516 5.79004V12.1987C0.978516 12.9064 1.55263 13.4805 2.26025 13.4805H5.67822C6.38585 13.4805 6.95996 12.9064 6.95996 12.1987V8.78076C6.95996 8.07313 6.38585 7.49902 5.67822 7.49902Z" fill="#41167F"/>
<path d="M13.3687 7.49902H11.2324V5.79004C11.2324 4.84742 11.9988 4.08105 12.9414 4.08105H13.155C13.5102 4.08105 13.7959 3.79534 13.7959 3.44017V2.15846C13.7959 1.80332 13.5102 1.51758 13.155 1.51758H12.9414C10.5809 1.51758 8.66895 3.42951 8.66895 5.79004V12.1987C8.66895 12.9064 9.24305 13.4805 9.95068 13.4805H13.3687C14.0763 13.4805 14.6504 12.9064 14.6504 12.1987V8.78076C14.6504 8.07313 14.0763 7.49902 13.3687 7.49902Z" fill="#41167F"/>
</g>
<defs>
<clipPath id="clip0_5329_17520">
<rect width="14" height="14" fill="white" transform="translate(0.814453 0.5)"/>
</clipPath>
</defs>
</svg> 