<svg width="12" height="17" viewBox="0 0 12 17" fill="none" xmlns="http://www.w3.org/2000/svg">
<path fill-rule="evenodd" clip-rule="evenodd" d="M0.314453 1.5C0.314453 0.947715 0.762168 0.5 1.31445 0.5H5.81445C8.29973 0.5 10.3145 2.51472 10.3145 5C10.3145 6.20432 9.84136 7.29813 9.07089 8.10575C10.4124 8.88473 11.3145 10.337 11.3145 12C11.3145 14.4853 9.29973 16.5 6.81445 16.5H1.31445C0.762168 16.5 0.314453 16.0523 0.314453 15.5V8.5V1.5ZM2.31445 7.5H5.81445C7.19517 7.5 8.31445 6.38071 8.31445 5C8.31445 3.61929 7.19517 2.5 5.81445 2.5H2.31445V7.5ZM2.31445 9.5V14.5H6.81445C8.19516 14.5 9.31445 13.3807 9.31445 12C9.31445 10.6193 8.19516 9.5 6.81445 9.5H5.81445H2.31445Z" fill="#41167F"/>
</svg>
