<svg width="17" height="13" viewBox="0 0 17 13" fill="none" xmlns="http://www.w3.org/2000/svg">
<path fill-rule="evenodd" clip-rule="evenodd" d="M4.81445 1.49899C4.81445 0.946708 5.26217 0.498993 5.81445 0.498993H15.8145C16.3667 0.498993 16.8145 0.946708 16.8145 1.49899C16.8145 2.05128 16.3667 2.49899 15.8145 2.49899H5.81445C5.26217 2.49899 4.81445 2.05128 4.81445 1.49899ZM4.81445 6.49899C4.81445 5.94671 5.26217 5.49899 5.81445 5.49899H15.8145C16.3667 5.49899 16.8145 5.94671 16.8145 6.49899C16.8145 7.05128 16.3667 7.49899 15.8145 7.49899H5.81445C5.26217 7.49899 4.81445 7.05128 4.81445 6.49899ZM1.81445 10.499C1.26217 10.499 0.814453 10.9467 0.814453 11.499V11.501C0.814453 12.0533 1.26217 12.501 1.81445 12.501H1.81645C2.36874 12.501 2.81645 12.0533 2.81645 11.501V11.499C2.81645 10.9467 2.36874 10.499 1.81645 10.499H1.81445ZM5.81445 10.499C5.26217 10.499 4.81445 10.9467 4.81445 11.499C4.81445 12.0513 5.26217 12.499 5.81445 12.499H15.8145C16.3667 12.499 16.8145 12.0513 16.8145 11.499C16.8145 10.9467 16.3667 10.499 15.8145 10.499H5.81445ZM1.81445 5.49899C1.26217 5.49899 0.814453 5.94671 0.814453 6.49899V6.50099C0.814453 7.05328 1.26217 7.50099 1.81445 7.50099H1.81645C2.36874 7.50099 2.81645 7.05328 2.81645 6.50099V6.49899C2.81645 5.94671 2.36874 5.49899 1.81645 5.49899H1.81445ZM1.81445 0.498993C1.26217 0.498993 0.814453 0.946708 0.814453 1.49899V1.50099C0.814453 2.05328 1.26217 2.50099 1.81445 2.50099H1.81645C2.36874 2.50099 2.81645 2.05328 2.81645 1.50099V1.49899C2.81645 0.946708 2.36874 0.498993 1.81645 0.498993H1.81445Z" fill="#41167F"/>
</svg> 