<svg width="20" height="13" viewBox="0 0 20 13" fill="none" xmlns="http://www.w3.org/2000/svg">
<path d="M1.32931 12.3407C1.08727 12.3407 0.876789 12.2513 0.697884 12.0724C0.529503 11.8935 0.445312 11.683 0.445312 11.4409V1.71693C0.445312 1.47488 0.529503 1.26441 0.697884 1.0855C0.876789 0.906596 1.08727 0.817144 1.32931 0.817144H1.75553C1.99758 0.817144 2.20805 0.906596 2.38696 1.0855C2.56586 1.26441 2.65531 1.47488 2.65531 1.71693V5.30029C2.65531 5.38448 2.69741 5.42657 2.7816 5.42657H6.72803C6.81222 5.42657 6.85432 5.38448 6.85432 5.30029V1.71693C6.85432 1.47488 6.94377 1.26441 7.12267 1.0855C7.30158 0.906596 7.51206 0.817144 7.7541 0.817144H8.18032C8.42237 0.817144 8.62758 0.906596 8.79596 1.0855C8.97487 1.26441 9.06432 1.47488 9.06432 1.71693V11.4409C9.06432 11.683 8.97487 11.8935 8.79596 12.0724C8.62758 12.2513 8.42237 12.3407 8.18032 12.3407H7.7541C7.51206 12.3407 7.30158 12.2513 7.12267 12.0724C6.94377 11.8935 6.85432 11.683 6.85432 11.4409V7.25772C6.85432 7.163 6.81222 7.11565 6.72803 7.11565H2.7816C2.69741 7.11565 2.65531 7.163 2.65531 7.25772V11.4409C2.65531 11.683 2.56586 11.8935 2.38696 12.0724C2.20805 12.2513 1.99758 12.3407 1.75553 12.3407H1.32931Z" fill="#41167F"/>
<path d="M19.153 4.02165C19.153 5.01089 18.8373 5.96329 18.2059 6.87886C17.585 7.78391 16.3747 8.98889 14.5751 10.4938C14.5541 10.5148 14.5436 10.5306 14.5436 10.5412C14.5436 10.5517 14.5488 10.5569 14.5594 10.5569H18.2848C18.5268 10.5569 18.7373 10.6464 18.9162 10.8253C19.0951 10.9937 19.1846 11.1989 19.1846 11.4409C19.1846 11.683 19.0951 11.8935 18.9162 12.0724C18.7373 12.2513 18.5268 12.3407 18.2848 12.3407H12.4914C12.2494 12.3407 12.0389 12.2513 11.86 12.0724C11.6916 11.8935 11.6074 11.683 11.6074 11.4409C11.6074 10.8411 11.8337 10.3622 12.2862 10.0044C14.1068 8.55215 15.3276 7.42084 15.9485 6.6105C16.5694 5.80017 16.8799 5.01088 16.8799 4.24265C16.8799 3.0745 16.2537 2.49043 15.0014 2.49043C14.3594 2.49043 13.5806 2.66934 12.6651 3.02715C12.4651 3.11134 12.2757 3.09555 12.0968 2.97979C11.9284 2.86402 11.8442 2.70617 11.8442 2.50622V2.23786C11.8442 1.96424 11.9179 1.71693 12.0652 1.49593C12.2231 1.26441 12.4283 1.11181 12.6809 1.03814C13.5754 0.785573 14.4541 0.659286 15.3171 0.659286C16.5484 0.659286 17.4955 0.953953 18.1585 1.54329C18.8215 2.13262 19.153 2.95874 19.153 4.02165Z" fill="#41167F"/>
</svg> 