<svg width="20" height="13" viewBox="0 0 20 13" fill="none" xmlns="http://www.w3.org/2000/svg">
  <path d="M1.39417 12.1603C1.15308 12.1603 0.943438 12.0712 0.765242 11.893C0.597529 11.7148 0.513672 11.5052 0.513672 11.2641V1.57865C0.513672 1.33757 0.597529 1.12792 0.765242 0.949727C0.943438 0.771532 1.15308 0.682434 1.39417 0.682434H1.81869C2.05978 0.682434 2.26942 0.771532 2.44762 0.949727C2.62581 1.12792 2.71491 1.33757 2.71491 1.57865V5.14781C2.71491 5.23166 2.75684 5.27359 2.8407 5.27359H6.77148C6.85534 5.27359 6.89727 5.23166 6.89727 5.14781V1.57865C6.89727 1.33757 6.98637 1.12792 7.16456 0.949727C7.34276 0.771532 7.5524 0.682434 7.79349 0.682434H8.21801C8.4591 0.682434 8.6635 0.771532 8.83122 0.949727C9.00941 1.12792 9.09851 1.33757 9.09851 1.57865V11.2641C9.09851 11.5052 9.00941 11.7148 8.83122 11.893C8.6635 12.0712 8.4591 12.1603 8.21801 12.1603H7.79349C7.5524 12.1603 7.34276 12.0712 7.16456 11.893C6.98637 11.7148 6.89727 11.5052 6.89727 11.2641V7.09748C6.89727 7.00314 6.85534 6.95597 6.77148 6.95597H2.8407C2.75684 6.95597 2.71491 7.00314 2.71491 7.09748V11.2641C2.71491 11.5052 2.62581 11.7148 2.44762 11.893C2.26942 12.0712 2.05978 12.1603 1.81869 12.1603H1.39417Z" fill="#41167F"/>
  <path d="M12.4963 2.45915C12.2552 2.45915 12.0456 2.37529 11.8674 2.20758C11.6892 2.02938 11.6001 1.81974 11.6001 1.57865C11.6001 1.33757 11.6892 1.12792 11.8674 0.949727C12.0456 0.771532 12.2552 0.682434 12.4963 0.682434H18.078C18.3191 0.682434 18.5235 0.771532 18.6912 0.949727C18.8694 1.12792 18.9585 1.33757 18.9585 1.57865C18.9585 2.17613 18.7384 2.66879 18.2981 3.05663L15.751 5.36793C15.7405 5.37841 15.7353 5.3889 15.7353 5.39938C15.7353 5.40986 15.7405 5.4151 15.751 5.4151H16.0026C16.9669 5.4151 17.7269 5.69287 18.2824 6.24843C18.838 6.7935 19.1157 7.55869 19.1157 8.54401C19.1157 9.74945 18.7489 10.6824 18.0151 11.3427C17.2814 11.9926 16.2332 12.3176 14.8705 12.3176C14.0634 12.3176 13.2825 12.2232 12.5278 12.0345C12.2762 11.9717 12.0718 11.8301 11.9145 11.61C11.7573 11.3899 11.6787 11.1436 11.6787 10.871V10.6981C11.6787 10.4884 11.7626 10.326 11.9303 10.2107C12.1085 10.0849 12.3024 10.0534 12.512 10.1163C13.3611 10.3993 14.1158 10.5408 14.7762 10.5408C15.468 10.5408 16.0026 10.3731 16.3799 10.0377C16.7573 9.70228 16.946 9.21486 16.946 8.57545C16.946 7.98846 16.7311 7.56917 16.3013 7.3176C15.882 7.05555 15.1378 6.92452 14.0686 6.92452H13.8957C13.686 6.92452 13.5026 6.84591 13.3454 6.68867C13.1986 6.53144 13.1252 6.34801 13.1252 6.13836C13.1252 5.61426 13.3139 5.17925 13.6913 4.83334L16.2541 2.50632C16.2646 2.49584 16.2699 2.48536 16.2699 2.47487C16.2699 2.46439 16.2646 2.45915 16.2541 2.45915H12.4963Z" fill="#41167F"/>
</svg>