<svg width="18" height="13" viewBox="0 0 18 13" fill="none" xmlns="http://www.w3.org/2000/svg">
<path d="M0.95745 12.4986C0.705452 12.4986 0.486323 12.4055 0.300064 12.2193C0.124761 12.033 0.0371094 11.8139 0.0371094 11.5619V1.43813C0.0371094 1.18613 0.124761 0.966998 0.300064 0.780739C0.486323 0.59448 0.705452 0.50135 0.95745 0.50135H1.40119C1.65318 0.50135 1.87231 0.59448 2.05857 0.780739C2.24483 0.966998 2.33796 1.18613 2.33796 1.43813V5.16879C2.33796 5.25644 2.38179 5.30027 2.46944 5.30027H6.5781C6.66575 5.30027 6.70958 5.25644 6.70958 5.16879V1.43813C6.70958 1.18613 6.80271 0.966998 6.98897 0.780739C7.17523 0.59448 7.39436 0.50135 7.64635 0.50135H8.09009C8.34209 0.50135 8.55574 0.59448 8.73104 0.780739C8.9173 0.966998 9.01043 1.18613 9.01043 1.43813V11.5619C9.01043 11.8139 8.9173 12.033 8.73104 12.2193C8.55574 12.4055 8.34209 12.4986 8.09009 12.4986H7.64635C7.39436 12.4986 7.17523 12.4055 6.98897 12.2193C6.80271 12.033 6.70958 11.8139 6.70958 11.5619V7.20669C6.70958 7.10808 6.66575 7.05878 6.5781 7.05878H2.46944C2.38179 7.05878 2.33796 7.10808 2.33796 7.20669V11.5619C2.33796 11.8139 2.24483 12.033 2.05857 12.2193C1.87231 12.4055 1.65318 12.4986 1.40119 12.4986H0.95745Z" fill="#41167F"/>
<path d="M12.7428 4.92227C12.5894 5.04279 12.425 5.05923 12.2497 4.97158C12.0854 4.88392 12.0032 4.74697 12.0032 4.56071V3.90332C12.0032 3.28976 12.2497 2.79124 12.7428 2.40777L14.5013 1.06013C14.9943 0.68761 15.5531 0.50135 16.1776 0.50135H16.6706C16.9226 0.50135 17.1363 0.59448 17.3116 0.780739C17.4979 0.966998 17.591 1.18613 17.591 1.43813V11.5619C17.591 11.8139 17.4979 12.033 17.3116 12.2193C17.1363 12.4055 16.9226 12.4986 16.6706 12.4986H16.1776C15.9256 12.4986 15.7065 12.4055 15.5202 12.2193C15.334 12.033 15.2408 11.8139 15.2408 11.5619V3.03229L15.2244 3.01585L15.208 3.03229L12.7428 4.92227Z" fill="#41167F"/>
</svg> 