<svg width="11" height="17" viewBox="0 0 11 17" fill="none" xmlns="http://www.w3.org/2000/svg">
<path fill-rule="evenodd" clip-rule="evenodd" d="M7.83623 0.499985H9.81445C10.3667 0.499985 10.8145 0.9477 10.8145 1.49998C10.8145 2.05227 10.3667 2.49998 9.81445 2.49998H8.56902L5.14044 14.5H5.81445C6.36674 14.5 6.81445 14.9477 6.81445 15.5C6.81445 16.0523 6.36674 16.5 5.81445 16.5H3.8384C3.82298 16.5003 3.80752 16.5003 3.79201 16.5H1.81445C1.26217 16.5 0.814453 16.0523 0.814453 15.5C0.814453 14.9477 1.26217 14.5 1.81445 14.5H3.06041L6.48898 2.49998H5.81445C5.26217 2.49998 4.81445 2.05227 4.81445 1.49998C4.81445 0.9477 5.26217 0.499985 5.81445 0.499985H7.79221C7.80684 0.49966 7.82151 0.499658 7.83623 0.499985Z" fill="#41167F"/>
</svg>