<svg width="19" height="19" viewBox="0 0 19 19" fill="none" xmlns="http://www.w3.org/2000/svg">
<path fill-rule="evenodd" clip-rule="evenodd" d="M4.81467 1.5C4.81467 1.15342 4.63522 0.831557 4.3404 0.64935C4.04559 0.467144 3.67745 0.45058 3.36746 0.605574L1.36746 1.60557C0.87348 1.85256 0.673256 2.45324 0.920245 2.94721C1.16723 3.44119 1.76791 3.64142 2.26189 3.39443L2.81467 3.11804V7.5C2.81467 8.05229 3.26239 8.5 3.81467 8.5C4.36696 8.5 4.81467 8.05229 4.81467 7.5V1.5ZM6.81445 4.5C6.81445 3.94772 7.26217 3.5 7.81445 3.5H17.8145C18.3667 3.5 18.8145 3.94772 18.8145 4.5C18.8145 5.05228 18.3667 5.5 17.8145 5.5H7.81445C7.26217 5.5 6.81445 5.05228 6.81445 4.5ZM7.81445 8.5C7.26217 8.5 6.81445 8.94771 6.81445 9.5C6.81445 10.0523 7.26217 10.5 7.81445 10.5H17.8145C18.3667 10.5 18.8145 10.0523 18.8145 9.5C18.8145 8.94771 18.3667 8.5 17.8145 8.5H7.81445ZM3.31446 12.5C3.03832 12.5 2.81446 12.7239 2.81446 13V13.1853C2.81446 13.7376 2.36674 14.1853 1.81446 14.1853C1.26217 14.1853 0.814459 13.7376 0.814459 13.1853V13C0.814459 11.6193 1.93375 10.5 3.31446 10.5H3.355C4.71332 10.5 5.81446 11.6011 5.81446 12.9595C5.81446 13.5267 5.63048 14.0786 5.29013 14.5324L3.81446 16.5H4.81446C5.36674 16.5 5.81446 16.9477 5.81446 17.5C5.81446 18.0523 5.36674 18.5 4.81446 18.5H1.81446C1.43569 18.5 1.08942 18.286 0.920032 17.9472C0.75064 17.6084 0.787196 17.203 1.01446 16.9L3.69013 13.3324C3.77083 13.2248 3.81446 13.094 3.81446 12.9595C3.81446 12.7057 3.60875 12.5 3.355 12.5H3.31446ZM6.81445 14.5C6.81445 13.9477 7.26217 13.5 7.81445 13.5H17.8145C18.3667 13.5 18.8145 13.9477 18.8145 14.5C18.8145 15.0523 18.3667 15.5 17.8145 15.5H7.81445C7.26217 15.5 6.81445 15.0523 6.81445 14.5Z" fill="#41167F"/>
</svg> 