<svg width="21" height="21" viewBox="0 0 21 21" fill="none" xmlns="http://www.w3.org/2000/svg">
  <path fill-rule="evenodd" clip-rule="evenodd" d="M20.8145 10.5C20.8145 9.94771 20.3667 9.5 19.8145 9.5C19.2622 9.5 18.8145 9.94771 18.8145 10.5C18.8145 14.9183 15.2327 18.5 10.8145 18.5C6.39617 18.5 2.81445 14.9183 2.81445 10.5C2.81445 6.08172 6.39618 2.5 10.8145 2.5C12.8432 2.5 14.6953 3.2544 16.1062 4.5L14.3145 4.5C13.7622 4.5 13.3145 4.94771 13.3145 5.5C13.3145 6.05228 13.7622 6.5 14.3145 6.5H18.3145C18.8667 6.5 19.3145 6.05228 19.3145 5.5V1.5C19.3145 0.947715 18.8667 0.5 18.3145 0.5C17.7622 0.5 17.3145 0.947715 17.3145 1.5V2.90053C15.567 1.40476 13.2962 0.5 10.8145 0.5C5.2916 0.5 0.814453 4.97715 0.814453 10.5C0.814453 16.0228 5.2916 20.5 10.8145 20.5C16.3373 20.5 20.8145 16.0228 20.8145 10.5Z" fill="#41167F"/>
</svg>