<svg width="19" height="19" viewBox="0 0 19 19" fill="none" xmlns="http://www.w3.org/2000/svg">
<path fill-rule="evenodd" clip-rule="evenodd" d="M7.92197 2.862C8.57901 2.59417 9.32485 2.46871 10.0781 2.50663C10.8316 2.54455 11.5463 2.74352 12.1472 3.07023C12.7482 3.39695 13.1982 3.83046 13.4766 4.30388C13.7567 4.77992 14.3695 4.93884 14.8456 4.65883C15.3216 4.37882 15.4805 3.76592 15.2005 3.28988C14.7165 2.46695 13.9828 1.79171 13.1025 1.31313C12.2222 0.834528 11.2126 0.561196 10.1787 0.509156C9.1446 0.45711 8.10569 0.627335 7.16704 1.00995C6.22879 1.3924 5.40805 1.98054 4.80938 2.73521C4.2085 3.49269 3.85481 4.3903 3.81769 5.3351C3.80687 5.61054 3.82322 5.88496 3.86584 6.15557C3.95176 6.70113 4.46368 7.07374 5.00924 6.98782C5.5548 6.9019 5.92741 6.38999 5.84149 5.84443C5.81901 5.70165 5.81049 5.55773 5.81615 5.41361C5.83529 4.9264 6.01752 4.43037 6.37625 3.97817C6.73719 3.52317 7.26452 3.12998 7.92197 2.862ZM0.814453 9.5C0.814453 8.94772 1.26217 8.5 1.81445 8.5H9.81433H17.8145C18.3667 8.5 18.8145 8.94772 18.8145 9.5C18.8145 10.0523 18.3667 10.5 17.8145 10.5H14.6209C14.7649 10.6606 14.8984 10.8296 15.02 11.0066C15.5653 11.8002 15.8482 12.7194 15.8111 13.6649C15.774 14.6097 15.4203 15.5073 14.8194 16.2648C14.2207 17.0195 13.4 17.6076 12.4618 17.9901C11.5231 18.3727 10.4842 18.5429 9.45011 18.4908C8.41618 18.4388 7.40656 18.1655 6.52627 17.6869C5.646 17.2083 4.91231 16.5331 4.42825 15.7101C4.14824 15.2341 4.30716 14.6212 4.7832 14.3412C5.25924 14.0612 5.87214 14.2201 6.15214 14.6961C6.43061 15.1695 6.88062 15.6031 7.48157 15.9298C8.08248 16.2565 8.79723 16.4555 9.55065 16.4934C10.3039 16.5313 11.0498 16.4058 11.7068 16.138C12.3643 15.87 12.8916 15.4768 13.2525 15.0218C13.6113 14.5696 13.7935 14.0736 13.8126 13.5864C13.8317 13.0999 13.6892 12.6013 13.3717 12.1393C13.1966 11.8845 12.9707 11.6448 12.6973 11.4304C12.4721 11.2538 12.2158 11.0953 11.9319 10.961C11.3015 10.6627 10.5695 10.5 9.81433 10.5H1.81445C1.26217 10.5 0.814453 10.0523 0.814453 9.5Z" fill="#41167F"/>
</svg> 