<svg width="15" height="17" viewBox="0 0 15 17" fill="none" xmlns="http://www.w3.org/2000/svg">
<path fill-rule="evenodd" clip-rule="evenodd" d="M4.81445 1.5C4.81445 0.947715 4.36674 0.5 3.81445 0.5C3.26217 0.5 2.81445 0.947715 2.81445 1.5V7.5C2.81445 10.2614 5.05303 12.5 7.81445 12.5C10.5759 12.5 12.8145 10.2614 12.8145 7.5V1.5C12.8145 0.947715 12.3667 0.5 11.8145 0.5C11.2622 0.5 10.8145 0.947715 10.8145 1.5V7.5C10.8145 9.15685 9.47131 10.5 7.81445 10.5C6.1576 10.5 4.81445 9.15685 4.81445 7.5V1.5ZM1.81445 14.5C1.26217 14.5 0.814453 14.9477 0.814453 15.5C0.814453 16.0523 1.26217 16.5 1.81445 16.5H13.8145C14.3667 16.5 14.8145 16.0523 14.8145 15.5C14.8145 14.9477 14.3667 14.5 13.8145 14.5H1.81445Z" fill="#41167F"/>
</svg>
