<svg width="21" height="21" viewBox="0 0 21 21" fill="none" xmlns="http://www.w3.org/2000/svg">
  <path fill-rule="evenodd" clip-rule="evenodd" d="M0.814453 10.5C0.814453 9.94771 1.26217 9.5 1.81445 9.5C2.36674 9.5 2.81445 9.94771 2.81445 10.5C2.81445 14.9183 6.39618 18.5 10.8145 18.5C15.2327 18.5 18.8145 14.9183 18.8145 10.5C18.8145 6.08172 15.2327 2.5 10.8145 2.5C8.78571 2.5 6.93365 3.2544 5.52269 4.5L7.31445 4.5C7.86674 4.5 8.31445 4.94771 8.31445 5.5C8.31445 6.05228 7.86674 6.5 7.31445 6.5H3.31445C2.76217 6.5 2.31445 6.05228 2.31445 5.5V1.5C2.31445 0.947715 2.76217 0.5 3.31445 0.5C3.86674 0.5 4.31445 0.947715 4.31445 1.5V2.90053C6.06186 1.40476 8.33273 0.5 10.8145 0.5C16.3373 0.5 20.8145 4.97715 20.8145 10.5C20.8145 16.0228 16.3373 20.5 10.8145 20.5C5.29161 20.5 0.814453 16.0228 0.814453 10.5Z" fill="#41167F"/>
</svg>