<svg width="1120" height="549" viewBox="0 0 1120 549" fill="none" xmlns="http://www.w3.org/2000/svg">
<g clip-path="url(#clip0_218_74)">
<path d="M196 0H60C26.8629 0 0 26.8629 0 60V196C0 229.137 26.8629 256 60 256H196C229.137 256 256 229.137 256 196V60C256 26.8629 229.137 0 196 0Z" fill="#242938"/>
<path d="M196 0H60C26.8629 0 0 26.8629 0 60V196C0 229.137 26.8629 256 60 256H196C229.137 256 256 229.137 256 196V60C256 26.8629 229.137 0 196 0Z" fill="#242938"/>
<path d="M227.088 57.6016L133.256 225.389C131.318 228.854 126.341 228.874 124.375 225.427L28.6823 57.6177C26.54 53.861 29.7524 49.3105 34.0096 50.0715L127.942 66.8613C128.541 66.9684 129.155 66.9674 129.754 66.8582L221.722 50.0955C225.965 49.3222 229.192 53.8374 227.088 57.6016Z" fill="url(#paint0_linear_218_74)"/>
<path d="M172.687 28.0492L103.249 41.6554C102.107 41.879 101.262 42.8462 101.194 44.007L96.9221 116.148C96.8216 117.847 98.3821 119.166 100.04 118.783L119.373 114.322C121.182 113.905 122.816 115.498 122.445 117.317L116.701 145.443C116.314 147.336 118.092 148.954 119.94 148.393L131.881 144.765C133.732 144.203 135.511 145.826 135.119 147.721L125.991 191.9C125.42 194.664 129.096 196.171 130.629 193.801L131.653 192.219L188.235 79.2992C189.183 77.4085 187.549 75.2526 185.472 75.6534L165.573 79.494C163.703 79.8545 162.112 78.113 162.639 76.2834L175.628 31.2582C176.156 29.4255 174.559 27.6825 172.687 28.0492Z" fill="url(#paint1_linear_218_74)"/>
</g>
<g clip-path="url(#clip1_218_74)">
<path d="M484 0H348C314.863 0 288 26.8629 288 60V196C288 229.137 314.863 256 348 256H484C517.137 256 544 229.137 544 196V60C544 26.8629 517.137 0 484 0Z" fill="#007ACC"/>
<path d="M344.611 128.849L344.53 139.333H361.19H377.851V186.673V234.012H389.635H401.419V186.673V139.333H418.079H434.739V129.052C434.739 123.363 434.618 118.609 434.455 118.487C434.333 118.325 414.056 118.243 389.472 118.284L344.733 118.406L344.611 128.849Z" fill="white"/>
<path d="M494.567 118.108C501.068 119.734 506.026 122.619 510.577 127.332C512.934 129.852 516.428 134.444 516.713 135.541C516.794 135.866 505.66 143.343 498.915 147.528C498.671 147.691 497.695 146.634 496.598 145.009C493.307 140.214 489.853 138.141 484.57 137.776C476.809 137.247 471.811 141.311 471.852 148.097C471.852 150.088 472.136 151.266 472.949 152.892C474.655 156.427 477.825 158.54 487.781 162.847C506.107 170.731 513.949 175.932 518.826 183.327C524.271 191.576 525.49 204.742 521.792 214.535C517.729 225.181 507.651 232.414 493.469 234.812C489.081 235.584 478.678 235.462 473.965 234.609C463.684 232.78 453.932 227.701 447.918 221.037C445.561 218.436 440.969 211.65 441.254 211.162C441.375 211 442.432 210.35 443.61 209.659C444.748 209.009 449.056 206.53 453.119 204.173L460.474 199.906L462.018 202.182C464.172 205.473 468.885 209.984 471.73 211.487C479.897 215.795 491.113 215.185 496.639 210.228C498.996 208.074 499.971 205.839 499.971 202.548C499.971 199.581 499.605 198.281 498.061 196.046C496.07 193.202 492.007 190.804 480.466 185.806C467.26 180.117 461.571 176.582 456.37 170.974C453.363 167.724 450.518 162.522 449.34 158.174C448.365 154.558 448.121 145.496 448.893 141.839C451.615 129.08 461.246 120.181 475.143 117.539C479.654 116.686 490.137 117.011 494.567 118.108Z" fill="white"/>
</g>
<g clip-path="url(#clip2_218_74)">
<path d="M772 0H636C602.863 0 576 26.8629 576 60V196C576 229.137 602.863 256 636 256H772C805.137 256 832 229.137 832 196V60C832 26.8629 805.137 0 772 0Z" fill="#242938"/>
<path d="M758 50H794L704 205.25L614 50H649.55H682.85L704 86L724.7 50H758Z" fill="#41B883"/>
<path d="M614 50L704 205.25L794 50H758L704 143.15L649.55 50H614Z" fill="#41B883"/>
<path d="M649.55 50L704 143.6L758 50H724.7L704 86L682.85 50H649.55Z" fill="white"/>
</g>
<g clip-path="url(#clip3_218_74)">
<path d="M1060 0H924C890.863 0 864 26.8629 864 60V196C864 229.137 890.863 256 924 256H1060C1093.14 256 1120 229.137 1120 196V60C1120 26.8629 1093.14 0 1060 0Z" fill="#CD6799"/>
<mask id="mask0_218_74" style="mask-type:luminance" maskUnits="userSpaceOnUse" x="892" y="53" width="200" height="150">
<path d="M1092 53H892V202.909H1092V53Z" fill="white"/>
</mask>
<g mask="url(#mask0_218_74)">
<path d="M1064.11 139.163C1057.13 139.199 1051.07 140.879 1046 143.361C1044.14 139.674 1042.27 136.388 1041.95 133.978C1041.58 131.167 1041.14 129.451 1041.58 126.092C1042.02 122.733 1043.99 117.951 1043.95 117.586C1043.92 117.22 1043.52 115.505 1039.5 115.468C1035.48 115.432 1032.02 116.235 1031.61 117.294C1031.21 118.352 1030.45 120.762 1029.93 123.245C1029.24 126.896 1021.9 139.93 1017.7 146.757C1016.35 144.092 1015.18 141.755 1014.93 139.893C1014.56 137.082 1014.13 135.366 1014.56 132.007C1015 128.648 1016.97 123.865 1016.94 123.5C1016.9 123.135 1016.5 121.419 1012.48 121.383C1008.47 121.346 1005 122.149 1004.6 123.208C1004.19 124.267 1003.76 126.75 1002.92 129.159C1002.08 131.569 992.329 153.329 989.773 158.951C988.459 161.835 987.327 164.135 986.524 165.705C986.524 165.705 986.487 165.815 986.378 165.997C985.684 167.348 985.282 168.078 985.282 168.078C985.282 168.078 985.282 168.078 985.282 168.115C984.735 169.101 984.15 170.013 983.858 170.013C983.639 170.013 983.238 167.385 983.931 163.807C985.392 156.249 988.86 144.493 988.824 144.092C988.824 143.873 989.481 141.828 986.56 140.769C983.712 139.71 982.69 141.463 982.434 141.463C982.179 141.463 981.996 142.084 981.996 142.084C981.996 142.084 985.173 128.867 975.936 128.867C970.167 128.867 962.208 135.183 958.265 140.879C955.782 142.23 950.489 145.114 944.83 148.217C942.676 149.422 940.448 150.627 938.367 151.759C938.221 151.613 938.075 151.43 937.929 151.284C926.757 139.345 906.093 130.912 906.969 114.884C907.298 109.042 909.306 93.7082 946.655 75.0882C977.396 59.9367 1001.86 64.1353 1006.09 73.4453C1012.15 86.7348 992.986 111.415 961.222 114.993C949.101 116.344 942.749 111.671 941.142 109.919C939.463 108.093 939.207 107.984 938.586 108.349C937.564 108.896 938.221 110.539 938.586 111.488C939.536 113.971 943.442 118.352 950.05 120.506C955.892 122.405 970.094 123.464 987.29 116.819C1006.53 109.371 1021.57 88.6698 1017.16 71.3277C1012.74 53.7301 983.53 47.925 955.892 57.7461C939.463 63.5877 921.646 72.7881 908.831 84.7633C893.607 99.0021 891.197 111.379 892.183 116.563C895.724 134.964 921.098 146.939 931.248 155.811C930.737 156.103 930.262 156.359 929.861 156.578C924.786 159.097 905.436 169.21 900.616 179.908C895.14 192.029 901.493 200.718 905.691 201.886C918.725 205.501 932.124 199.002 939.317 188.268C946.509 177.534 945.633 163.588 942.31 157.199C942.274 157.126 942.237 157.053 942.164 156.98C943.479 156.213 944.83 155.41 946.144 154.643C948.736 153.11 951.292 151.686 953.482 150.517C952.241 153.913 951.328 157.965 950.89 163.807C950.343 170.671 953.154 179.579 956.841 183.084C958.484 184.617 960.419 184.654 961.661 184.654C965.969 184.654 967.904 181.076 970.058 176.841C972.686 171.656 975.06 165.632 975.06 165.632C975.06 165.632 972.102 181.916 980.134 181.916C983.055 181.916 986.012 178.119 987.327 176.184C987.327 176.22 987.327 176.22 987.327 176.22C987.327 176.22 987.4 176.111 987.546 175.855C987.838 175.38 988.02 175.088 988.02 175.088C988.02 175.088 988.02 175.052 988.02 175.015C989.189 172.971 991.817 168.334 995.724 160.63C1000.76 150.7 1005.62 138.287 1005.62 138.287C1005.62 138.287 1006.06 141.317 1007.55 146.355C1008.43 149.313 1010.26 152.562 1011.72 155.702C1010.55 157.345 1009.82 158.257 1009.82 158.257C1009.82 158.257 1009.82 158.257 1009.85 158.294C1008.9 159.535 1007.88 160.886 1006.75 162.2C1002.77 166.947 998.024 172.387 997.367 173.957C996.6 175.819 996.783 177.169 998.243 178.265C999.302 179.068 1001.2 179.177 1003.14 179.068C1006.71 178.812 1009.23 177.936 1010.47 177.388C1012.41 176.695 1014.67 175.636 1016.79 174.066C1020.7 171.182 1023.07 167.056 1022.85 161.616C1022.74 158.622 1021.76 155.629 1020.55 152.817C1020.92 152.306 1021.24 151.795 1021.61 151.284C1027.78 142.266 1032.56 132.372 1032.56 132.372C1032.56 132.372 1033 135.402 1034.5 140.441C1035.23 142.996 1036.72 145.771 1038.04 148.473C1032.23 153.183 1028.66 158.659 1027.38 162.237C1025.08 168.882 1026.87 171.875 1030.26 172.569C1031.8 172.898 1033.99 172.168 1035.59 171.474C1037.64 170.817 1040.05 169.685 1042.35 168.005C1046.25 165.121 1050.01 161.105 1049.8 155.665C1049.69 153.183 1049.03 150.736 1048.12 148.363C1053.04 146.319 1059.4 145.187 1067.5 146.136C1084.88 148.181 1088.31 159.024 1087.66 163.588C1087 168.151 1083.35 170.634 1082.14 171.401C1080.94 172.168 1080.54 172.423 1080.65 172.971C1080.79 173.774 1081.38 173.737 1082.4 173.591C1083.82 173.336 1091.53 169.904 1091.85 161.507C1092.4 150.773 1082.18 139.053 1064.11 139.163ZM930.043 184.362C924.275 190.641 916.243 193.015 912.774 191.007C909.05 188.852 910.511 179.579 917.593 172.934C921.902 168.882 927.451 165.121 931.138 162.821C931.978 162.31 933.22 161.58 934.716 160.667C934.972 160.521 935.118 160.448 935.118 160.448C935.41 160.265 935.702 160.083 935.994 159.9C938.586 169.393 936.104 177.754 930.043 184.362ZM972.029 155.811C970.021 160.704 965.823 173.226 963.267 172.533C961.076 171.948 959.726 162.456 962.829 153.073C964.399 148.363 967.721 142.741 969.656 140.55C972.796 137.045 976.264 135.877 977.104 137.301C978.163 139.163 973.271 152.744 972.029 155.811ZM1006.68 172.387C1005.84 172.825 1005.03 173.117 1004.67 172.898C1004.41 172.752 1005.03 172.168 1005.03 172.168C1005.03 172.168 1009.38 167.494 1011.1 165.377C1012.08 164.135 1013.25 162.675 1014.49 161.032C1014.49 161.178 1014.49 161.361 1014.49 161.507C1014.49 167.093 1009.09 170.853 1006.68 172.387ZM1033.4 166.289C1032.78 165.851 1032.89 164.391 1034.97 159.827C1035.78 158.038 1037.67 155.045 1040.92 152.16C1041.29 153.329 1041.54 154.46 1041.51 155.519C1041.47 162.566 1036.43 165.194 1033.4 166.289Z" fill="white"/>
</g>
</g>
<path d="M196 288H60C26.8629 288 0 314.863 0 348V484C0 517.137 26.8629 544 60 544H196C229.137 544 256 517.137 256 484V348C256 314.863 229.137 288 196 288Z" fill="#00B4E0"/>
<g clip-path="url(#clip4_218_74)">
<path d="M484 288H348C314.863 288 288 314.863 288 348V484C288 517.137 314.863 544 348 544H484C517.137 544 544 517.137 544 484V348C544 314.863 517.137 288 484 288Z" fill="#242938"/>
<path d="M484 288H348C314.863 288 288 314.863 288 348V484C288 517.137 314.863 544 348 544H484C517.137 544 544 517.137 544 484V348C544 314.863 517.137 288 484 288Z" fill="#242938"/>
</g>
<path d="M368.177 391.874H403.234L401.527 402.041H378.884L377.179 412.661H397.591L395.886 422.861H375.475L372.062 443.672H359.651L368.177 391.874Z" fill="white"/>
<path d="M403.803 404.822H416.065L409.657 443.663H397.394L403.803 404.822ZM405.29 394.355C405.796 391.1 408.982 388.463 412.43 388.463C415.878 388.463 418.335 391.1 417.907 394.355C417.479 397.61 414.272 400.271 410.812 400.271C407.352 400.271 404.82 397.589 405.29 394.355Z" fill="white"/>
<path d="M422.429 391.874H434.689L431.506 411.473H431.768C433.773 407.906 437.762 404.318 443.855 404.318C451.905 404.318 458.135 410.564 455.865 424.268C453.708 437.492 445.685 444.218 437.158 444.218C431.342 444.218 428.433 440.957 427.531 437.366H427.052L426.05 443.666H413.918L422.429 391.874ZM434.54 434.6C439.053 434.6 442.275 430.529 443.266 424.259C444.257 417.989 442.463 413.99 437.911 413.99C433.422 413.99 430.137 417.911 429.135 424.259C428.12 430.538 430.051 434.6 434.54 434.6Z" fill="white"/>
<path d="M457.29 424.4C459.268 412.364 468.095 404.324 479.707 404.324C490.64 404.324 497.161 411.377 495.055 424.148L494.576 427.232H468.925L468.848 427.688C468.071 432.62 470.377 435.488 475.167 435.488C478.353 435.488 481.117 434.123 482.515 431.519L493.698 431.846C490.967 439.484 483.619 444.413 473.468 444.413C461.375 444.395 455.208 436.811 457.29 424.4ZM484.321 420.05C484.949 416.081 482.589 413.249 478.579 413.249C474.616 413.249 471.106 416.207 470.228 420.05H484.321Z" fill="white"/>
<path d="M501.026 404.822H512.926L511.736 411.902H512.137C514.419 406.769 518.203 404.3 522.416 404.3C523.549 404.308 524.677 404.449 525.778 404.72L523.972 415.493C522.844 415.064 520.762 414.836 519.233 414.836C514.895 414.836 511.132 417.947 510.331 422.573L506.868 443.663H494.608L501.026 404.822Z" fill="white"/>
<path d="M360.597 405.623H320.58L317.379 410.204L359.856 410.18L360.597 405.623Z" fill="#00ACD7"/>
<path d="M359.183 415.118H307.398L304.104 419.681L358.443 419.642L359.183 415.118Z" fill="#00ACD7"/>
<path d="M357.77 424.61H335.645L332.67 429.191L357.03 429.173L357.77 424.61Z" fill="#00ACD7"/>
<path d="M772 288H636C602.863 288 576 314.863 576 348V484C576 517.137 602.863 544 636 544H772C805.137 544 832 517.137 832 484V348C832 314.863 805.137 288 772 288Z" fill="#242938"/>
<path d="M1060 288H924C890.863 288 864 314.863 864 348V484C864 517.137 890.863 544 924 544H1060C1093.14 544 1120 517.137 1120 484V348C1120 314.863 1093.14 288 1060 288Z" fill="#2396ED"/>
<path d="M1010.19 415.638H1030V397.667H1010.19V415.638ZM986.6 415.638H1006.41V397.667H986.6V415.638ZM963.483 415.638H983.297V397.667H963.483V415.638ZM940.366 415.638H959.708V397.667H940.366V415.638ZM916.777 415.638H936.592V397.667H916.777V415.638ZM940.366 393.884H959.708V375.912H940.366V393.884ZM963.483 393.884H983.297V375.912H963.483V393.884ZM986.6 393.884H1006.41V375.912H986.6V393.884ZM986.6 372.129H1006.41V354.157H986.6V372.129ZM1093.22 407.599C1093.22 407.599 1084.73 399.558 1067.27 402.396C1065.38 388.681 1050.76 380.641 1050.76 380.641C1050.76 380.641 1037.08 397.194 1046.99 415.638C1044.16 417.057 1039.44 418.949 1032.36 418.949H902.624C900.265 427.935 900.265 487.524 965.37 487.524C1012.07 487.524 1046.99 465.769 1063.5 426.042C1088.03 427.935 1093.22 407.599 1093.22 407.599Z" fill="white"/>
<path d="M38.7361 396.569C38.3535 396.569 38.2579 396.377 38.4492 396.09L40.4577 393.501C40.649 393.213 41.1272 393.021 41.5098 393.021H75.655C76.0376 393.021 76.1332 393.309 75.9419 393.597L74.316 396.09C74.1247 396.377 73.6465 396.665 73.3595 396.665L38.7361 396.569Z" fill="white"/>
<path d="M24.2938 405.39C23.9112 405.39 23.8155 405.198 24.0068 404.91L26.0154 402.322C26.2067 402.034 26.6849 401.842 27.0675 401.842H70.6815C71.0641 401.842 71.2553 402.13 71.1597 402.418L70.3945 404.719C70.2989 405.102 69.9163 405.294 69.5337 405.294L24.2938 405.39Z" fill="white"/>
<path d="M47.4398 414.211C47.0572 414.211 46.9616 413.923 47.1529 413.636L48.4919 411.239C48.6832 410.951 49.0658 410.664 49.4483 410.664H68.5773C68.9599 410.664 69.1512 410.951 69.1512 411.335L68.9599 413.636C68.9599 414.019 68.5773 414.307 68.2904 414.307L47.4398 414.211Z" fill="white"/>
<path d="M146.719 394.843C140.693 396.377 136.581 397.528 130.651 399.062C129.216 399.445 129.12 399.541 127.877 398.103C126.442 396.473 125.39 395.418 123.382 394.459C117.356 391.487 111.522 392.35 106.07 395.898C99.5662 400.116 96.2186 406.349 96.3143 414.115C96.4099 421.785 101.67 428.113 109.226 429.168C115.73 430.031 121.182 427.73 125.486 422.84C126.347 421.785 127.112 420.635 128.068 419.292C124.625 419.292 120.321 419.292 109.609 419.292C107.6 419.292 107.122 418.046 107.792 416.416C109.035 413.444 111.33 408.458 112.67 405.965C112.956 405.39 113.626 404.431 115.061 404.431C119.939 404.431 137.92 404.431 149.875 404.431C149.684 407.02 149.684 409.609 149.301 412.197C148.249 419.101 145.667 425.429 141.459 430.99C134.572 440.098 125.582 445.755 114.2 447.289C104.827 448.536 96.123 446.714 88.4714 440.961C81.3937 435.592 77.3766 428.497 76.3245 419.676C75.0811 409.225 78.1418 399.829 84.4543 391.583C91.2451 382.666 100.236 377.01 111.235 374.996C120.225 373.366 128.833 374.421 136.581 379.694C141.65 383.05 145.284 387.652 147.675 393.213C148.249 394.076 147.867 394.555 146.719 394.843Z" fill="white"/>
<path d="M178.377 447.865C169.674 447.673 161.735 445.18 155.04 439.427C149.397 434.537 145.858 428.305 144.711 420.922C142.989 410.088 145.954 400.5 152.458 391.966C159.44 382.762 167.857 377.968 179.238 375.955C188.994 374.229 198.176 375.188 206.497 380.845C214.053 386.022 218.74 393.021 219.983 402.226C221.609 415.169 217.879 425.716 208.984 434.729C202.671 441.153 194.924 445.18 186.029 447.002C183.447 447.481 180.864 447.577 178.377 447.865ZM201.141 409.129C201.045 407.883 201.045 406.924 200.854 405.965C199.132 396.473 190.429 391.104 181.342 393.213C172.447 395.226 166.709 400.883 164.605 409.896C162.883 417.375 166.518 424.949 173.404 428.017C178.664 430.318 183.925 430.031 188.994 427.442C196.55 423.511 200.663 417.375 201.141 409.129Z" fill="white"/>
<path d="M737.43 387.13L754.057 370.461L755.166 363.442C724.866 335.822 676.698 338.954 649.384 369.977C641.796 378.594 636.167 389.336 633.166 400.429L639.121 399.587L672.377 394.09L674.944 391.458C689.736 375.172 714.748 372.981 731.829 386.838L737.43 387.13Z" fill="#EA4335"/>
<path d="M777.745 399.939C773.923 385.829 766.076 373.145 755.166 363.443L731.829 386.838C741.683 394.909 747.297 407.07 747.056 419.825V423.977C758.527 423.977 767.826 433.299 767.826 444.798C767.826 456.297 758.527 465.386 747.056 465.386H705.458L701.373 469.831V494.805L705.458 498.723H747.056C776.893 498.956 801.269 475.132 801.501 445.222C801.642 427.092 792.726 410.096 777.745 399.939Z" fill="#4285F4"/>
<path d="M663.917 498.724H705.457V465.386H663.917C660.957 465.385 658.091 464.748 655.399 463.515L649.506 465.328L632.761 481.997L631.303 487.67C640.693 494.777 652.15 498.775 663.917 498.724Z" fill="#34A853"/>
<path d="M663.917 390.581C634.079 390.759 610.037 415.152 610.214 445.062C610.314 461.765 618.096 477.487 631.303 487.67L655.399 463.514C644.945 458.78 640.299 446.446 645.022 435.967C649.745 425.487 662.049 420.831 672.502 425.564C677.108 427.65 680.797 431.35 682.879 435.967L706.974 411.812C696.722 398.375 680.792 390.52 663.917 390.581Z" fill="#FBBC05"/>
<defs>
<linearGradient id="paint0_linear_218_74" x1="26.3459" y1="44.075" x2="143.127" y2="202.673" gradientUnits="userSpaceOnUse">
<stop stop-color="#41D1FF"/>
<stop offset="1" stop-color="#BD34FE"/>
</linearGradient>
<linearGradient id="paint1_linear_218_74" x1="122.551" y1="31.7433" x2="143.676" y2="176.66" gradientUnits="userSpaceOnUse">
<stop stop-color="#FFEA83"/>
<stop offset="0.0833333" stop-color="#FFDD35"/>
<stop offset="1" stop-color="#FFA800"/>
</linearGradient>
<clipPath id="clip0_218_74">
<rect width="256" height="256" fill="white"/>
</clipPath>
<clipPath id="clip1_218_74">
<rect width="256" height="256" fill="white" transform="translate(288)"/>
</clipPath>
<clipPath id="clip2_218_74">
<rect width="256" height="256" fill="white" transform="translate(576)"/>
</clipPath>
<clipPath id="clip3_218_74">
<rect width="256" height="256" fill="white" transform="translate(864)"/>
</clipPath>
<clipPath id="clip4_218_74">
<rect width="256" height="256" fill="white" transform="translate(288 288)"/>
</clipPath>
</defs>
</svg>
